<mxfile host="Electron" modified="2023-11-07T10:34:05.483Z" agent="Mozilla/5.0 (Macintosh; Intel Mac OS X 10_15_7) AppleWebKit/537.36 (KHTML, like Gecko) draw.io/22.0.3 Chrome/114.0.5735.289 Electron/25.8.4 Safari/537.36" etag="r3WFUDRK_uuuMN5IKZ0f" version="22.0.3" type="device">
  <diagram id="eOFOYFhU0GsHmSKvHhCn" name="Pagina-1">
    <mxGraphModel dx="823" dy="605" grid="1" gridSize="10" guides="1" tooltips="1" connect="1" arrows="1" fold="1" page="1" pageScale="1" pageWidth="827" pageHeight="1169" math="1" shadow="0">
      <root>
        <mxCell id="0" />
        <mxCell id="1" parent="0" />
        <mxCell id="-Wk1aWWQlNWJjsIihzdT-1" value="" style="endArrow=classic;html=1;rounded=0;fontSize=25;fontColor=#1A1A1A;strokeWidth=2;" parent="1" edge="1">
          <mxGeometry width="50" height="50" relative="1" as="geometry">
            <mxPoint x="80" y="470" as="sourcePoint" />
            <mxPoint x="563" y="470" as="targetPoint" />
          </mxGeometry>
        </mxCell>
        <mxCell id="1sHnC9SIz_1kgPtoTxCF-3" value="" style="endArrow=none;html=1;rounded=0;edgeStyle=orthogonalEdgeStyle;curved=1;" edge="1" parent="1">
          <mxGeometry width="50" height="50" relative="1" as="geometry">
            <mxPoint x="100" y="370" as="sourcePoint" />
            <mxPoint x="320" y="470" as="targetPoint" />
            <Array as="points">
              <mxPoint x="100" y="410" />
              <mxPoint x="270" y="410" />
              <mxPoint x="270" y="470" />
            </Array>
          </mxGeometry>
        </mxCell>
        <mxCell id="1sHnC9SIz_1kgPtoTxCF-42" value="" style="rounded=0;whiteSpace=wrap;html=1;strokeColor=none;" vertex="1" parent="1">
          <mxGeometry x="220" y="380" width="20" height="110" as="geometry" />
        </mxCell>
        <mxCell id="1sHnC9SIz_1kgPtoTxCF-43" value="" style="rounded=0;whiteSpace=wrap;html=1;strokeColor=none;" vertex="1" parent="1">
          <mxGeometry x="130" y="390" width="20" height="100" as="geometry" />
        </mxCell>
        <mxCell id="-Wk1aWWQlNWJjsIihzdT-3" value="$$x$$" style="text;html=1;strokeColor=none;fillColor=none;align=center;verticalAlign=middle;whiteSpace=wrap;rounded=0;fontSize=15;fontColor=#1A1A1A;" parent="1" vertex="1">
          <mxGeometry x="510" y="470" width="60" height="30" as="geometry" />
        </mxCell>
        <mxCell id="-Wk1aWWQlNWJjsIihzdT-6" value="$$V(x)$$" style="text;html=1;strokeColor=none;fillColor=none;align=center;verticalAlign=middle;whiteSpace=wrap;rounded=0;fontSize=15;fontColor=#1A1A1A;" parent="1" vertex="1">
          <mxGeometry x="320" y="330" width="60" height="30" as="geometry" />
        </mxCell>
        <mxCell id="1sHnC9SIz_1kgPtoTxCF-1" value="" style="endArrow=classic;html=1;rounded=0;fontSize=25;fontColor=#1A1A1A;strokeWidth=2;" edge="1" parent="1">
          <mxGeometry width="50" height="50" relative="1" as="geometry">
            <mxPoint x="320" y="490" as="sourcePoint" />
            <mxPoint x="320" y="330" as="targetPoint" />
          </mxGeometry>
        </mxCell>
        <mxCell id="1sHnC9SIz_1kgPtoTxCF-2" value="$$x^*$$" style="text;html=1;strokeColor=none;fillColor=none;align=center;verticalAlign=middle;whiteSpace=wrap;rounded=0;fontSize=15;fontColor=#1A1A1A;" vertex="1" parent="1">
          <mxGeometry x="294" y="482" width="60" height="30" as="geometry" />
        </mxCell>
        <mxCell id="1sHnC9SIz_1kgPtoTxCF-5" value="" style="endArrow=none;html=1;rounded=0;edgeStyle=orthogonalEdgeStyle;curved=1;" edge="1" parent="1">
          <mxGeometry width="50" height="50" relative="1" as="geometry">
            <mxPoint x="320" y="470" as="sourcePoint" />
            <mxPoint x="540" y="360" as="targetPoint" />
            <Array as="points">
              <mxPoint x="380" y="470" />
              <mxPoint x="380" y="400" />
              <mxPoint x="500" y="400" />
              <mxPoint x="500" y="370" />
              <mxPoint x="540" y="370" />
            </Array>
          </mxGeometry>
        </mxCell>
        <mxCell id="1sHnC9SIz_1kgPtoTxCF-7" value="" style="ellipse;whiteSpace=wrap;html=1;aspect=fixed;strokeColor=none;fillColor=#000000;" vertex="1" parent="1">
          <mxGeometry x="494" y="383" width="10" height="10" as="geometry" />
        </mxCell>
        <mxCell id="1sHnC9SIz_1kgPtoTxCF-14" value="" style="curved=1;endArrow=openThin;html=1;rounded=0;endFill=0;orthogonal=0;orthogonalLoop=0;flowAnimation=0;noJump=0;enumerate=0;ignoreEdge=0;" edge="1" parent="1">
          <mxGeometry width="50" height="50" relative="1" as="geometry">
            <mxPoint x="493" y="384" as="sourcePoint" />
            <mxPoint x="443" y="397" as="targetPoint" />
            <Array as="points">
              <mxPoint x="453" y="364" />
            </Array>
          </mxGeometry>
        </mxCell>
        <mxCell id="1sHnC9SIz_1kgPtoTxCF-16" value="$$\xi(t_1)$$" style="text;html=1;strokeColor=none;fillColor=none;align=center;verticalAlign=middle;whiteSpace=wrap;rounded=0;fontSize=13;fontColor=#1A1A1A;" vertex="1" parent="1">
          <mxGeometry x="430" y="350" width="60" height="30" as="geometry" />
        </mxCell>
        <mxCell id="1sHnC9SIz_1kgPtoTxCF-17" value="&lt;font style=&quot;font-size: 13px;&quot;&gt;$$\xi(t_2)$$&lt;/font&gt;" style="text;html=1;strokeColor=none;fillColor=none;align=center;verticalAlign=middle;whiteSpace=wrap;rounded=0;fontSize=15;fontColor=#1A1A1A;" vertex="1" parent="1">
          <mxGeometry x="414" y="415" width="60" height="30" as="geometry" />
        </mxCell>
        <mxCell id="1sHnC9SIz_1kgPtoTxCF-18" value="$$x_0$$" style="text;html=1;strokeColor=none;fillColor=none;align=center;verticalAlign=middle;whiteSpace=wrap;rounded=0;fontSize=15;fontColor=#1A1A1A;" vertex="1" parent="1">
          <mxGeometry x="490" y="373" width="60" height="30" as="geometry" />
        </mxCell>
        <mxCell id="1sHnC9SIz_1kgPtoTxCF-21" value="" style="curved=1;endArrow=openThin;html=1;rounded=0;endFill=0;orthogonal=0;orthogonalLoop=0;flowAnimation=0;noJump=0;enumerate=0;ignoreEdge=0;" edge="1" parent="1">
          <mxGeometry width="50" height="50" relative="1" as="geometry">
            <mxPoint x="497" y="397" as="sourcePoint" />
            <mxPoint x="410" y="410" as="targetPoint" />
            <Array as="points">
              <mxPoint x="474" y="433" />
            </Array>
          </mxGeometry>
        </mxCell>
        <mxCell id="1sHnC9SIz_1kgPtoTxCF-23" value="" style="curved=1;endArrow=openThin;html=1;rounded=0;endFill=0;orthogonal=0;orthogonalLoop=0;flowAnimation=0;noJump=0;enumerate=0;ignoreEdge=0;" edge="1" parent="1">
          <mxGeometry width="50" height="50" relative="1" as="geometry">
            <mxPoint x="502" y="397" as="sourcePoint" />
            <mxPoint x="382" y="456" as="targetPoint" />
            <Array as="points">
              <mxPoint x="532" y="437" />
              <mxPoint x="446" y="467" />
            </Array>
          </mxGeometry>
        </mxCell>
        <mxCell id="1sHnC9SIz_1kgPtoTxCF-25" value="&lt;font style=&quot;font-size: 13px;&quot;&gt;$$\xi(t_3)$$&lt;/font&gt;" style="text;html=1;strokeColor=none;fillColor=none;align=center;verticalAlign=middle;whiteSpace=wrap;rounded=0;fontSize=15;fontColor=#1A1A1A;" vertex="1" parent="1">
          <mxGeometry x="495" y="430" width="60" height="30" as="geometry" />
        </mxCell>
        <mxCell id="1sHnC9SIz_1kgPtoTxCF-26" value="" style="ellipse;whiteSpace=wrap;html=1;aspect=fixed;strokeColor=default;fillColor=#000000;" vertex="1" parent="1">
          <mxGeometry x="440" y="398" width="4" height="4" as="geometry" />
        </mxCell>
        <mxCell id="1sHnC9SIz_1kgPtoTxCF-28" value="" style="ellipse;whiteSpace=wrap;html=1;aspect=fixed;strokeColor=default;fillColor=#000000;" vertex="1" parent="1">
          <mxGeometry x="398" y="405" width="4" height="4" as="geometry" />
        </mxCell>
        <mxCell id="1sHnC9SIz_1kgPtoTxCF-29" value="" style="ellipse;whiteSpace=wrap;html=1;aspect=fixed;strokeColor=default;fillColor=#000000;" vertex="1" parent="1">
          <mxGeometry x="373" y="450" width="4" height="4" as="geometry" />
        </mxCell>
        <mxCell id="1sHnC9SIz_1kgPtoTxCF-31" value="$$[$$" style="text;html=1;strokeColor=none;fillColor=none;align=center;verticalAlign=middle;whiteSpace=wrap;rounded=0;fontSize=15;fontColor=#1A1A1A;" vertex="1" parent="1">
          <mxGeometry x="209.5" y="454" width="60" height="30" as="geometry" />
        </mxCell>
        <mxCell id="1sHnC9SIz_1kgPtoTxCF-32" value="$$]$$" style="text;html=1;strokeColor=none;fillColor=none;align=center;verticalAlign=middle;whiteSpace=wrap;rounded=0;fontSize=15;fontColor=#1A1A1A;" vertex="1" parent="1">
          <mxGeometry x="190" y="454" width="60" height="30" as="geometry" />
        </mxCell>
        <mxCell id="1sHnC9SIz_1kgPtoTxCF-35" value="$$]$$" style="text;html=1;strokeColor=none;fillColor=none;align=center;verticalAlign=middle;whiteSpace=wrap;rounded=0;fontSize=15;fontColor=#1A1A1A;" vertex="1" parent="1">
          <mxGeometry x="100" y="454" width="60" height="30" as="geometry" />
        </mxCell>
        <mxCell id="1sHnC9SIz_1kgPtoTxCF-36" value="$$[$$" style="text;html=1;strokeColor=none;fillColor=none;align=center;verticalAlign=middle;whiteSpace=wrap;rounded=0;fontSize=15;fontColor=#1A1A1A;" vertex="1" parent="1">
          <mxGeometry x="120" y="454" width="60" height="30" as="geometry" />
        </mxCell>
        <mxCell id="1sHnC9SIz_1kgPtoTxCF-38" value="" style="ellipse;whiteSpace=wrap;html=1;aspect=fixed;strokeWidth=0.5;" vertex="1" parent="1">
          <mxGeometry x="129" y="402" width="4" height="4" as="geometry" />
        </mxCell>
        <mxCell id="1sHnC9SIz_1kgPtoTxCF-39" value="" style="ellipse;whiteSpace=wrap;html=1;aspect=fixed;strokeWidth=0.5;" vertex="1" parent="1">
          <mxGeometry x="147" y="406" width="4" height="4" as="geometry" />
        </mxCell>
        <mxCell id="1sHnC9SIz_1kgPtoTxCF-40" value="" style="ellipse;whiteSpace=wrap;html=1;aspect=fixed;strokeWidth=0.5;" vertex="1" parent="1">
          <mxGeometry x="218" y="410" width="4" height="4" as="geometry" />
        </mxCell>
        <mxCell id="1sHnC9SIz_1kgPtoTxCF-41" value="" style="ellipse;whiteSpace=wrap;html=1;aspect=fixed;strokeWidth=0.5;" vertex="1" parent="1">
          <mxGeometry x="237" y="413" width="4" height="4" as="geometry" />
        </mxCell>
      </root>
    </mxGraphModel>
  </diagram>
</mxfile>
